<svg width="61" height="71" fill="none" xmlns="http://www.w3.org/2000/svg"><g style="mix-blend-mode:darken"><path d="M3.02 31.366a69.568 69.568 0 0 1 .686 1.448l.002.004.022.049a.737.737 0 0 0 .016.034l-.726-1.535Zm0 0c-.574-1.176-1.206-2.473-1.696-3.774C.832 26.286.5 25.015.5 23.892c0-6.398 3.38-12.236 8.906-16.49C14.932 3.15 22.583.5 31.04.5c13.706 0 25.755 7.083 29.41 17.073.099.272.053.552-.132.806-.19.26-.533.496-1.01.6a2.247 2.247 0 0 1-1.347-.123c-.394-.17-.657-.435-.761-.72-3.316-9.066-14.118-15.29-26.16-15.29-7.46 0-14.24 2.334-19.167 6.126-4.928 3.792-8.02 9.063-8.02 14.913 0 1.005.347 2.183.797 3.334.45 1.152 1.026 2.334 1.531 3.37l.013.027.087.178c.2.408.385.79.55 1.145l.016.032.019.03 22.59 34.712v.002c.465.71 1.284.76 1.544.76.259 0 1.079-.049 1.543-.76l22.73-34.808c.385-.587 1.419-.904 2.32-.551h.002c.434.168.697.438.81.702a.825.825 0 0 1-.08.807L35.592 67.768c-.855 1.308-2.606 2.248-4.593 2.248h-.004c-1.99 0-3.741-.942-4.592-2.251L3.752 32.911l-.732-1.546Z" fill="#7728DB"/><path d="M3.02 31.366a69.568 69.568 0 0 1 .686 1.448l.002.004.022.049a.737.737 0 0 0 .016.034l-.726-1.535Zm0 0c-.574-1.176-1.206-2.473-1.696-3.774C.832 26.286.5 25.015.5 23.892c0-6.398 3.38-12.236 8.906-16.49C14.932 3.15 22.583.5 31.04.5c13.706 0 25.755 7.083 29.41 17.073.099.272.053.552-.132.806-.19.26-.533.496-1.01.6a2.247 2.247 0 0 1-1.347-.123c-.394-.17-.657-.435-.761-.72-3.316-9.066-14.118-15.29-26.16-15.29-7.46 0-14.24 2.334-19.167 6.126-4.928 3.792-8.02 9.063-8.02 14.913 0 1.005.347 2.183.797 3.334.45 1.152 1.026 2.334 1.531 3.37l.013.027.087.178c.2.408.385.79.55 1.145l.016.032.019.03 22.59 34.712v.002c.465.71 1.284.76 1.544.76.259 0 1.079-.049 1.543-.76l22.73-34.808c.385-.587 1.419-.904 2.32-.551h.002c.434.168.697.438.81.702a.825.825 0 0 1-.08.807L35.592 67.768c-.855 1.308-2.606 2.248-4.593 2.248h-.004c-1.99 0-3.741-.942-4.592-2.251L3.752 32.911l-.732-1.546Z" stroke="#000"/></g></svg>